<mxfile host="app.diagrams.net" modified="2023-04-17T16:10:30.854Z" agent="Mozilla/5.0 (Windows NT 10.0; Win64; x64) AppleWebKit/537.36 (KHTML, like Gecko) Chrome/112.0.0.0 Safari/537.36 Edg/112.0.1722.48" etag="oAAQtq8CTO4faMzo4Cl0" version="21.1.8" type="device">
  <diagram name="Page-1" id="2YBvvXClWsGukQMizWep">
    <mxGraphModel dx="945" dy="619" grid="1" gridSize="10" guides="1" tooltips="1" connect="1" arrows="1" fold="1" page="1" pageScale="1" pageWidth="850" pageHeight="1100" math="0" shadow="0">
      <root>
        <mxCell id="0" />
        <mxCell id="1" parent="0" />
        <mxCell id="ttpBjqUp8vHlgBiYAZWB-1" value="Customer" style="shape=umlLifeline;perimeter=lifelinePerimeter;whiteSpace=wrap;html=1;container=0;dropTarget=0;collapsible=0;recursiveResize=0;outlineConnect=0;portConstraint=eastwest;newEdgeStyle={&quot;edgeStyle&quot;:&quot;elbowEdgeStyle&quot;,&quot;elbow&quot;:&quot;vertical&quot;,&quot;curved&quot;:0,&quot;rounded&quot;:0};" parent="1" vertex="1">
          <mxGeometry x="40" y="40" width="100" height="370" as="geometry" />
        </mxCell>
        <mxCell id="ttpBjqUp8vHlgBiYAZWB-2" value="" style="html=1;points=[];perimeter=orthogonalPerimeter;outlineConnect=0;targetShapes=umlLifeline;portConstraint=eastwest;newEdgeStyle={&quot;edgeStyle&quot;:&quot;elbowEdgeStyle&quot;,&quot;elbow&quot;:&quot;vertical&quot;,&quot;curved&quot;:0,&quot;rounded&quot;:0};" parent="ttpBjqUp8vHlgBiYAZWB-1" vertex="1">
          <mxGeometry x="45" y="40" width="10" height="330" as="geometry" />
        </mxCell>
        <mxCell id="ttpBjqUp8vHlgBiYAZWB-3" value="Customer menu" style="shape=umlLifeline;perimeter=lifelinePerimeter;whiteSpace=wrap;html=1;container=0;dropTarget=0;collapsible=0;recursiveResize=0;outlineConnect=0;portConstraint=eastwest;newEdgeStyle={&quot;edgeStyle&quot;:&quot;elbowEdgeStyle&quot;,&quot;elbow&quot;:&quot;vertical&quot;,&quot;curved&quot;:0,&quot;rounded&quot;:0};" parent="1" vertex="1">
          <mxGeometry x="220" y="40" width="100" height="370" as="geometry" />
        </mxCell>
        <mxCell id="ttpBjqUp8vHlgBiYAZWB-4" value="" style="html=1;points=[];perimeter=orthogonalPerimeter;outlineConnect=0;targetShapes=umlLifeline;portConstraint=eastwest;newEdgeStyle={&quot;edgeStyle&quot;:&quot;elbowEdgeStyle&quot;,&quot;elbow&quot;:&quot;vertical&quot;,&quot;curved&quot;:0,&quot;rounded&quot;:0};" parent="ttpBjqUp8vHlgBiYAZWB-3" vertex="1">
          <mxGeometry x="45" y="80" width="10" height="220" as="geometry" />
        </mxCell>
        <mxCell id="ttpBjqUp8vHlgBiYAZWB-5" value="" style="endArrow=classic;html=1;rounded=0;" parent="ttpBjqUp8vHlgBiYAZWB-3" source="ttpBjqUp8vHlgBiYAZWB-4" target="ttpBjqUp8vHlgBiYAZWB-4" edge="1">
          <mxGeometry width="50" height="50" relative="1" as="geometry">
            <mxPoint x="70" y="120" as="sourcePoint" />
            <mxPoint x="120" y="70" as="targetPoint" />
            <Array as="points">
              <mxPoint x="75" y="90" />
              <mxPoint x="75" y="120" />
            </Array>
          </mxGeometry>
        </mxCell>
        <mxCell id="ttpBjqUp8vHlgBiYAZWB-6" value="" style="endArrow=classic;html=1;rounded=0;" parent="ttpBjqUp8vHlgBiYAZWB-3" source="ttpBjqUp8vHlgBiYAZWB-4" target="ttpBjqUp8vHlgBiYAZWB-4" edge="1">
          <mxGeometry width="50" height="50" relative="1" as="geometry">
            <mxPoint x="50" y="200" as="sourcePoint" />
            <mxPoint x="100" y="150" as="targetPoint" />
            <Array as="points">
              <mxPoint x="75" y="160" />
              <mxPoint x="75" y="180" />
            </Array>
          </mxGeometry>
        </mxCell>
        <mxCell id="ttpBjqUp8vHlgBiYAZWB-20" value="" style="endArrow=classic;html=1;rounded=0;" parent="ttpBjqUp8vHlgBiYAZWB-3" source="ttpBjqUp8vHlgBiYAZWB-4" target="ttpBjqUp8vHlgBiYAZWB-4" edge="1">
          <mxGeometry width="50" height="50" relative="1" as="geometry">
            <mxPoint x="10" y="280" as="sourcePoint" />
            <mxPoint x="60" y="230" as="targetPoint" />
            <Array as="points">
              <mxPoint x="80" y="230" />
              <mxPoint x="80" y="250" />
            </Array>
          </mxGeometry>
        </mxCell>
        <mxCell id="ttpBjqUp8vHlgBiYAZWB-7" value="open" style="html=1;verticalAlign=bottom;endArrow=block;edgeStyle=elbowEdgeStyle;elbow=vertical;curved=0;rounded=0;" parent="1" source="ttpBjqUp8vHlgBiYAZWB-2" target="ttpBjqUp8vHlgBiYAZWB-4" edge="1">
          <mxGeometry relative="1" as="geometry">
            <mxPoint x="195" y="130" as="sourcePoint" />
            <Array as="points">
              <mxPoint x="180" y="120" />
            </Array>
          </mxGeometry>
        </mxCell>
        <mxCell id="ttpBjqUp8vHlgBiYAZWB-8" value="show variants" style="text;html=1;align=center;verticalAlign=middle;resizable=0;points=[];autosize=1;strokeColor=none;fillColor=none;" parent="1" vertex="1">
          <mxGeometry x="290" y="130" width="100" height="30" as="geometry" />
        </mxCell>
        <mxCell id="ttpBjqUp8vHlgBiYAZWB-9" value="" style="endArrow=classic;html=1;rounded=0;" parent="1" source="ttpBjqUp8vHlgBiYAZWB-2" target="ttpBjqUp8vHlgBiYAZWB-4" edge="1">
          <mxGeometry relative="1" as="geometry">
            <mxPoint x="150" y="189.57999999999998" as="sourcePoint" />
            <mxPoint x="250" y="189.57999999999998" as="targetPoint" />
            <Array as="points">
              <mxPoint x="220" y="190" />
            </Array>
          </mxGeometry>
        </mxCell>
        <mxCell id="ttpBjqUp8vHlgBiYAZWB-10" value="cancel chosen ticket" style="edgeLabel;resizable=0;html=1;align=center;verticalAlign=middle;" parent="ttpBjqUp8vHlgBiYAZWB-9" connectable="0" vertex="1">
          <mxGeometry relative="1" as="geometry">
            <mxPoint y="-10" as="offset" />
          </mxGeometry>
        </mxCell>
        <mxCell id="ttpBjqUp8vHlgBiYAZWB-11" value="show tickets" style="text;html=1;align=center;verticalAlign=middle;resizable=0;points=[];autosize=1;strokeColor=none;fillColor=none;" parent="1" vertex="1">
          <mxGeometry x="290" y="190" width="90" height="30" as="geometry" />
        </mxCell>
        <mxCell id="ttpBjqUp8vHlgBiYAZWB-15" value="" style="endArrow=classic;html=1;rounded=0;" parent="1" source="ttpBjqUp8vHlgBiYAZWB-2" target="ttpBjqUp8vHlgBiYAZWB-4" edge="1">
          <mxGeometry relative="1" as="geometry">
            <mxPoint x="290" y="260" as="sourcePoint" />
            <mxPoint x="560" y="260" as="targetPoint" />
            <Array as="points">
              <mxPoint x="220" y="260" />
            </Array>
          </mxGeometry>
        </mxCell>
        <mxCell id="ttpBjqUp8vHlgBiYAZWB-16" value="select" style="edgeLabel;resizable=0;html=1;align=center;verticalAlign=middle;" parent="ttpBjqUp8vHlgBiYAZWB-15" connectable="0" vertex="1">
          <mxGeometry relative="1" as="geometry">
            <mxPoint x="-5" y="-10" as="offset" />
          </mxGeometry>
        </mxCell>
        <mxCell id="ttpBjqUp8vHlgBiYAZWB-21" value="to do" style="text;html=1;align=center;verticalAlign=middle;resizable=0;points=[];autosize=1;strokeColor=none;fillColor=none;" parent="1" vertex="1">
          <mxGeometry x="290" y="268" width="50" height="30" as="geometry" />
        </mxCell>
        <mxCell id="ttpBjqUp8vHlgBiYAZWB-22" value="" style="endArrow=classic;html=1;rounded=0;" parent="1" source="ttpBjqUp8vHlgBiYAZWB-4" target="ttpBjqUp8vHlgBiYAZWB-2" edge="1">
          <mxGeometry relative="1" as="geometry">
            <mxPoint x="130" y="290" as="sourcePoint" />
            <mxPoint x="230" y="290" as="targetPoint" />
            <Array as="points">
              <mxPoint x="220" y="320" />
            </Array>
          </mxGeometry>
        </mxCell>
        <mxCell id="ttpBjqUp8vHlgBiYAZWB-23" value="success&amp;nbsp;" style="edgeLabel;resizable=0;html=1;align=center;verticalAlign=middle;" parent="ttpBjqUp8vHlgBiYAZWB-22" connectable="0" vertex="1">
          <mxGeometry relative="1" as="geometry">
            <mxPoint y="-10" as="offset" />
          </mxGeometry>
        </mxCell>
        <mxCell id="ttpBjqUp8vHlgBiYAZWB-25" value="CUSTOMER CANCEL CHOSEN TICKET" style="text;html=1;align=center;verticalAlign=middle;resizable=0;points=[];autosize=1;strokeColor=none;fillColor=none;strokeWidth=1;fontStyle=1" parent="1" vertex="1">
          <mxGeometry y="10" width="250" height="30" as="geometry" />
        </mxCell>
      </root>
    </mxGraphModel>
  </diagram>
</mxfile>
